# xmcd
#
# Track frame offsets: 
#        150
#        12447
#        30613
#        45449
#        72669
#        101202
#        118946
#        138441
#        159399
#        178049
#        212024
#        234515
#        250851
#
# Disc length: 3617 seconds
#
# Revision: 0
# Processed by: cddbd v1.5.2PL0 Copyright (c) Steve Scherf et al.
# Submitted via: ExactAudioCopy v0.99pb4
#
DISCID=b70e1f0d
DTITLE=Van Morrison - The Unreleased Live Album 2003 [Bootleg] [CD1
DTITLE=)
DYEAR=2004
DGENRE=R&B
TTITLE0=I Will Be There (Hamburg)
TTITLE1=Whinin' Boy Moan (Malvern)
TTITLE2=Once In A Blue Moon (Malvern)
TTITLE3=What's Wrong With This Picture (Malvern)
TTITLE4=Little Vilage (Malvern)
TTITLE5=Have I Told You Lately (Malvern)
TTITLE6=That's Life (Hamburg)
TTITLE7=In The Midnight (Hamburg)
TTITLE8=Back On Top (Hamburg)
TTITLE9=I Like It Like That - Kansas City (Hamburg)
TTITLE10=St. James Infirmary (Montreux)
TTITLE11=Don't Start Cryin' Now - Custard Pie (Montreux)
TTITLE12=Hoochie Coochie Man (Montreux)
EXTD=
EXTT0=
EXTT1=
EXTT2=
EXTT3=
EXTT4=
EXTT5=
EXTT6=
EXTT7=
EXTT8=
EXTT9=
EXTT10=
EXTT11=
EXTT12=
PLAYORDER=
